<svg height="512pt" viewBox="0 0 512 512" width="512pt" xmlns="http://www.w3.org/2000/svg"><path d="m512 98.667969c0-54.40625-44.261719-98.667969-98.667969-98.667969-78.671875 0-125.265625 87.835938-82.433593 152.816406l-15.351563 15.351563c-37.738281-34.066407-92.0625-39.765625-135.390625-16.296875l-67.191406-67.1875c18.582031-39.152344-10.125-84.683594-53.632813-84.683594-32.714843 0-59.332031 26.617188-59.332031 59.332031 0 43.511719 45.535156 72.210938 84.683594 53.636719l63.820312 63.816406c-40.621094 44.996094-40.734375 113.304688 0 158.429688l-29.632812 29.628906c-52.453125-30.808594-118.871094 7.269531-118.871094 68.15625 0 43.5625 35.4375 79 79 79 60.867188 0 98.964844-66.410156 68.15625-118.871094l33-33.003906c43.304688 23.453125 97.632812 17.789062 135.390625-16.292969l44.152344 44.152344c-18.574219 39.148437 10.125 84.683594 53.632812 84.683594 32.71875 0 59.335938-26.617188 59.335938-59.335938 0-43.507812-45.535157-72.207031-84.683594-53.632812l-47.523437-47.523438c18.761718-34.636719 19.132812-77.027343 0-112.351562l18.722656-18.722657c64.886718 42.769532 152.816406-3.671874 152.816406-82.433593zm-98.667969-58.667969c32.351563 0 58.667969 26.316406 58.667969 58.667969 0 32.347656-26.316406 58.664062-58.667969 58.664062-32.347656 0-58.664062-26.316406-58.664062-58.664062 0-32.351563 26.316406-58.667969 58.664062-58.667969zm-373.332031 19.332031c0-10.660156 8.671875-19.332031 19.332031-19.332031 10.660157 0 19.332031 8.671875 19.332031 19.332031 0 10.660157-8.671874 19.335938-19.332031 19.335938-10.660156 0-19.332031-8.675781-19.332031-19.335938zm39 412.667969c-21.503906 0-39-17.496094-39-39s17.496094-39 39-39 39 17.496094 39 39-17.496094 39-39 39zm157.332031-137.667969c-43.191406 0-78.332031-35.140625-78.332031-78.332031s35.140625-78.332031 78.332031-78.332031c43.195313 0 78.332031 35.140625 78.332031 78.332031s-35.136718 78.332031-78.332031 78.332031zm196.335938 79c0 10.660157-8.675781 19.335938-19.335938 19.335938-10.660156 0-19.332031-8.675781-19.332031-19.335938 0-10.660156 8.671875-19.332031 19.332031-19.332031 10.660157 0 19.335938 8.671875 19.335938 19.332031zm0 0"/></svg>