<svg height="512pt" viewBox="0 0 512 512.002" width="512pt" xmlns="http://www.w3.org/2000/svg"><path d="m66.835938 246.128906c-36.855469 0-66.835938 29.980469-66.835938 66.832032 0 36.851562 29.980469 66.832031 66.835938 66.832031 36.851562 0 66.832031-29.980469 66.832031-66.832031 0-36.851563-29.980469-66.832032-66.832031-66.832032zm0 113.664063c-25.824219 0-46.835938-21.007813-46.835938-46.832031 0-25.824219 21.011719-46.832032 46.835938-46.832032 25.820312 0 46.832031 21.007813 46.832031 46.832032 0 25.824218-21.011719 46.832031-46.832031 46.832031zm0 0"/><path d="m454 217.53125c31.980469 0 58-26.015625 58-58 0-31.980469-26.019531-58-58-58s-58 26.019531-58 58c0 8.605469 1.898438 16.765625 5.273438 24.113281l-21.257813 14.613281c-14.078125-16.160156-33.953125-27.140624-56.347656-29.6875v-37.328124c31.664062-4.832032 56-32.25 56-65.242188 0-36.394531-29.605469-66-66-66s-66 29.605469-66 66c0 32.992188 24.335937 60.410156 56 65.242188v37.328124c-43.832031 4.984376-78 42.289063-78 87.429688 0 3.351562.195312 6.660156.5625 9.914062l-32.832031 7.578126c-5.382813 1.242187-8.738282 6.609374-7.496094 11.992187 1.066406 4.625 5.183594 7.753906 9.734375 7.753906.746093 0 1.5-.085937 2.257812-.257812l32.832031-7.578125c12.125 34.109375 44.722657 58.597656 82.941407 58.597656 11.925781 0 23.300781-2.386719 33.679687-6.703125l31.382813 56.554687c-15.570313 12.082032-25.621094 30.960938-25.621094 52.152344 0 36.390625 29.609375 66 66 66 36.394531 0 66-29.609375 66-66 0-36.394531-29.605469-66-66-66-8.050781 0-15.769531 1.453125-22.910156 4.105469l-31.378907-56.542969c22.292969-15.980468 36.847657-42.101562 36.847657-71.5625 0-14.910156-3.730469-28.960937-10.300781-41.277344l21.25-14.609374c10.53125 10.738281 25.191406 17.414062 41.382812 17.414062zm11.109375 228.46875c0 25.363281-20.636719 46-46 46s-46-20.636719-46-46 20.636719-46 46-46 46 20.636719 46 46zm-197.441406-380c0-25.363281 20.636719-46 46-46s46 20.636719 46 46-20.636719 46-46 46-46-20.636719-46-46zm46 258c-37.496094 0-68-30.503906-68-68 0-37.492188 30.503906-68 68-68 37.496093 0 68 30.507812 68 68 0 37.496094-30.503907 68-68 68zm140.332031-202.46875c20.953125 0 38 17.046875 38 38s-17.046875 38-38 38-38-17.046875-38-38 17.046875-38 38-38zm0 0"/><path d="m158.839844 281.730469c-2.640625 0-5.207032 1.070312-7.078125 2.929687-1.859375 1.859375-2.929688 4.441406-2.929688 7.070313 0 2.628906 1.070313 5.210937 2.929688 7.070312 1.871093 1.859375 4.4375 2.929688 7.078125 2.929688 2.632812 0 5.199218-1.070313 7.070312-2.929688 1.859375-1.859375 2.929688-4.441406 2.929688-7.070312 0-2.628907-1.070313-5.210938-2.929688-7.070313-1.871094-1.859375-4.4375-2.929687-7.070312-2.929687zm0 0"/><path d="m348.667969 246c-5.523438 0-10 4.476562-10 10l-.003907.355469c-.078124 5.523437 4.332032 10.0625 9.855469 10.144531.050781 0 .097657.003906.148438.003906 5.453125 0 9.917969-4.382812 9.996093-9.855468l.003907-.644532c0-5.527344-4.476563-10.003906-10-10.003906zm0 0"/><path d="m324.933594 278.328125c-3.507813 1.773437-7.296875 2.671875-11.265625 2.671875-13.785157 0-25-11.214844-25-25 0-5.523438-4.476563-10-10-10-5.523438 0-10 4.476562-10 10 0 24.8125 20.1875 45 45 45 7.03125 0 14.050781-1.667969 20.292969-4.828125 4.929687-2.492187 6.902343-8.507813 4.410156-13.4375-2.492188-4.925781-8.511719-6.898437-13.4375-4.40625zm0 0"/></svg>